<?xml version="1.0" encoding="utf-8"?>
<!-- Generator: Adobe Illustrator 23.1.1, SVG Export Plug-In . SVG Version: 6.00 Build 0)  -->
<svg version="1.1" id="Layer_1" focusable="false" xmlns="http://www.w3.org/2000/svg" xmlns:xlink="http://www.w3.org/1999/xlink"
	 x="0px" y="0px" viewBox="0 0 448 512" style="enable-background:new 0 0 448 512;" xml:space="preserve">
<style type="text/css">
	.st0{opacity:0.4;fill:#15AABF;enable-background:new    ;}
	.st1{fill:#15AABF;}
</style>
<g>
	<path class="st0" d="M351.8,168c-4.4,70.6-65.2,124.2-135.7,119.8c-64.4-4-115.7-55.4-119.8-119.8H351.8z"/>
	<path class="st1" d="M13.6,79.8l6.4,1.5v58.4c-7,4.2-12,11.5-12,20.3c0,8.4,4.6,15.4,11.1,19.7L3.5,242c-1.7,6.9,2.1,14,7.6,14
		h41.8c5.5,0,9.3-7.1,7.6-14l-15.6-62.3C51.4,175.4,56,168.4,56,160c0-8.8-5-16.1-12-20.3V87.1l52,12.5V136h256V99.7l82.3-19.8
		c18.2-4.4,18.2-27.1,0-31.5l-190.4-46c-13.1-3.1-26.6-3.1-39.7,0L13.6,48.2C-4.5,52.6-4.5,75.4,13.6,79.8z M319.4,320.6L224,416
		l-95.4-95.4C57.1,323.7,0,382.2,0,454.4v9.6c0,26.5,21.5,48,48,48l0,0h352c26.5,0,48-21.5,48-48l0,0v-9.6
		C448,382.2,390.9,323.7,319.4,320.6z"/>
</g>
</svg>
