<?xml version="1.0" encoding="utf-8"?>
<!-- Generator: Adobe Illustrator 23.1.1, SVG Export Plug-In . SVG Version: 6.00 Build 0)  -->
<svg version="1.1" id="Layer_1" focusable="false" xmlns="http://www.w3.org/2000/svg" xmlns:xlink="http://www.w3.org/1999/xlink"
	 x="0px" y="0px" viewBox="0 0 576 512" style="enable-background:new 0 0 576 512;" xml:space="preserve">
<style type="text/css">
	.st0{opacity:0.4;fill:#15AABF;enable-background:new    ;}
	.st1{fill:#15AABF;}
</style>
<g>
	<path class="st0" d="M576,62.8v337.8c0,16.2-13.1,29.8-30,30.7c-49.5,2.6-149.5,12.1-218.7,46.9c-10.6,5.4-23.3-1.9-23.3-13.5
		V100.8c0-5.4,2.7-10.3,7.3-13.2c67.2-41.2,176.2-52.5,231-55.6C560.6,31,576,45,576,62.8z"/>
	<path class="st1" d="M264.7,87.6C197.5,46.5,88.6,35.2,33.8,32C15.4,31,0,45,0,62.8v337.9c0,16.2,13.1,29.8,30,30.7
		c49.5,2.6,149.6,12.1,218.8,47c10.6,5.4,23.2-1.9,23.2-13.5V100.6C272,95.3,269.3,90.4,264.7,87.6z"/>
</g>
</svg>
