<?xml version="1.0" encoding="utf-8"?>
<!-- Generator: Adobe Illustrator 23.1.1, SVG Export Plug-In . SVG Version: 6.00 Build 0)  -->
<svg version="1.1" id="Layer_1" focusable="false" xmlns="http://www.w3.org/2000/svg" xmlns:xlink="http://www.w3.org/1999/xlink"
	 x="0px" y="0px" viewBox="0 0 640 512" style="enable-background:new 0 0 640 512;" xml:space="preserve">
<style type="text/css">
	.st0{opacity:0.4;fill:#15AABF;enable-background:new    ;}
	.st1{fill:#15AABF;}
</style>
<g>
	<path class="st0" d="M528,0H112C85.5,0.1,64.1,21.5,64,48v336h512V48C575.9,21.5,554.5,0.1,528,0z M512,320H128V64h384V320z"/>
	<path class="st1" d="M624,416H381.5c-0.7,19.8-14.7,32-32.7,32H288c-18.7,0-33-17.5-32.8-32H16c-8.8,0-16,7.2-16,16v16
		c0.1,35.3,28.7,63.9,64,64h512c35.3-0.1,63.9-28.7,64-64v-16C640,423.2,632.8,416,624,416z M512,64H128v256h384V64z M289,250.3
		l-11.3,11.3c-6.2,6.2-16.4,6.3-22.6,0c0,0,0,0,0,0l-58.4-58.3c-6.2-6.2-6.3-16.4,0-22.6c0,0,0,0,0,0l58.3-58.3
		c6.2-6.2,16.4-6.3,22.6,0c0,0,0,0,0,0l11.4,11.3c6.2,6.2,6.3,16.4,0,22.6c0,0,0,0,0,0L253.2,192l35.8,35.7
		C295.2,234,295.3,244.1,289,250.3C289,250.3,289,250.3,289,250.3L289,250.3z M443.4,203.3L385,261.7c-6.2,6.2-16.4,6.3-22.6,0
		c0,0,0,0,0,0L351,250.4c-6.2-6.2-6.3-16.4,0-22.6c0,0,0,0,0,0l35.8-35.7L351,156.3c-6.2-6.2-6.3-16.4,0-22.6c0,0,0,0,0,0l11.3-11.3
		c6.2-6.2,16.4-6.3,22.6,0c0,0,0,0,0,0l58.3,58.3C449.5,186.9,449.6,197.1,443.4,203.3C443.3,203.3,443.3,203.3,443.4,203.3
		L443.4,203.3z"/>
</g>
</svg>
