<?xml version="1.0" encoding="utf-8"?>
<!-- Generator: Adobe Illustrator 23.1.1, SVG Export Plug-In . SVG Version: 6.00 Build 0)  -->
<svg version="1.1" id="Layer_1" focusable="false" xmlns="http://www.w3.org/2000/svg" xmlns:xlink="http://www.w3.org/1999/xlink"
	 x="0px" y="0px" viewBox="0 0 512 512" style="enable-background:new 0 0 512 512;" xml:space="preserve">
<style type="text/css">
	.st0{opacity:0.4;fill:#15AABF;enable-background:new    ;}
	.st1{fill:#15AABF;}
</style>
<g>
	<path class="st0" d="M21.1,133l99.1,100.3l95.8-95.8L146,33.1C84.1-55.3-52.2,52.5,21.1,133z M456.8,391.6
		c-6.5,0.1-12.4-3.9-14.6-10c-18.1-47.8-48.4-65.4-82.6-70.7L257.8,412.6C266.6,476,315.4,512,384,512c90.1,0,128-72.4,128-154.7
		C502.2,364,467.9,391.6,456.8,391.6L456.8,391.6z"/>
	<path class="st1" d="M19.1,379.7L0.3,487.1c-2,11.6,5.7,22.5,17.3,24.6c2.4,0.4,4.9,0.4,7.3,0l107.4-18.8l296.9-296.9L316.1,82.7
		L19.1,379.7z M497.9,59.3l-45.3-45.2C434-4.7,403.6-4.7,384.8,14c0,0,0,0-0.1,0.1l-46,46l113.2,113.2l46-46
		C516.7,108.5,516.7,78.2,497.9,59.3C498,59.4,498,59.3,497.9,59.3z"/>
</g>
</svg>
