<?xml version="1.0" encoding="utf-8"?>
<!-- Generator: Adobe Illustrator 23.1.1, SVG Export Plug-In . SVG Version: 6.00 Build 0)  -->
<svg version="1.1" id="Layer_1" focusable="false" xmlns="http://www.w3.org/2000/svg" xmlns:xlink="http://www.w3.org/1999/xlink"
	 x="0px" y="0px" viewBox="0 0 640 512" style="enable-background:new 0 0 640 512;" xml:space="preserve">
<style type="text/css">
	.st0{opacity:0.4;fill:#15AABF;enable-background:new    ;}
	.st1{fill:#15AABF;}
</style>
<g>
	<path class="st0" d="M323.1,175.7l-204.3,39.9c-21.6,4.3-37.6,22.7-38.7,44.7c15.3,8.9,20.5,28.5,11.6,43.7
		c-2.3,4-5.6,7.5-9.4,10.2l25.4,114.3c1.9,8.6-3.5,17.2-12.1,19.1c-1.2,0.3-2.3,0.4-3.5,0.4H35.9c-8.8,0-16-7.2-16-16
		c0-1.2,0.1-2.3,0.4-3.5l25.4-114.3c-14.5-10.1-18.1-30-8-44.5c2.7-3.9,6.2-7.1,10.3-9.5c1.2-37.3,28-68.9,64.6-76.1l204.3-39.9
		c8.6-1.9,17.1,3.6,19,12.3c1.9,8.6-3.6,17.1-12.3,19C323.5,175.6,323.3,175.7,323.1,175.7z"/>
	<path class="st1" d="M622.3,198.8l-279,85.7c-15.2,4.7-31.5,4.7-46.8,0L99.7,224c5.7-4.2,12.2-7,19.1-8.4l204.3-39.9
		c8.7-1.5,14.5-9.8,13-18.5s-9.8-14.5-18.5-13c-0.2,0-0.4,0.1-0.6,0.1l-204.3,39.9c-18.8,3.7-35.7,14-47.6,29.2l-47.4-14.6
		c-23.5-7.2-23.5-38.4,0-45.6l278.9-85.7c15.3-4.7,31.5-4.7,46.8,0l278.9,85.7C645.9,160.4,645.9,191.6,622.3,198.8L622.3,198.8z
		 M352.8,315.1c-21.4,6.5-44.2,6.5-65.6,0l-145-44.5L128,384c0,35.4,86,64,192,64s192-28.6,192-64l-14.2-113.5L352.8,315.1z"/>
</g>
</svg>
